<?xml version="1.0" encoding="iso-8859-1"?>
<!-- Generator: Adobe Illustrator 19.0.0, SVG Export Plug-In . SVG Version: 6.00 Build 0)  -->
<svg version="1.1" id="Layer_1" xmlns="http://www.w3.org/2000/svg" xmlns:xlink="http://www.w3.org/1999/xlink" x="0px" y="0px"
	 viewBox="0 0 512 512" style="enable-background:new 0 0 512 512;" xml:space="preserve">
<path style="fill:#4AD0FF;" d="M461.913,487.378H311.846c-12.842,0-20.873-13.934-14.458-25.043l54.252-93.966
	c4.326-7.491,13.655-10.439,21.498-6.791c8.657,4.026,18.817,4.029,27.484,0c7.846-3.649,17.173-0.699,21.497,6.792l54.251,93.966
	C482.794,473.458,474.741,487.378,461.913,487.378z"/>
<path style="fill:#16A5D9;" d="M476.371,462.335l-54.251-93.966c-4.325-7.491-13.653-10.439-21.497-6.792
	c-4.333,2.015-9.039,3.021-13.743,3.021v122.78h75.032C474.741,487.378,482.794,473.458,476.371,462.335z"/>
<path style="fill:#99E5FF;" d="M386.879,397.985c-36.736,0-66.206-29.934-66.206-66.206c0-36.507,29.7-66.206,66.206-66.206
	s66.206,29.7,66.206,66.206C453.085,368.009,423.657,397.985,386.879,397.985z"/>
<path style="fill:#4AD0FF;" d="M453.085,331.779c0-36.507-29.699-66.206-66.206-66.206v132.413
	C423.657,397.985,453.085,368.009,453.085,331.779z"/>
<path style="fill:#FBB071;" d="M241.542,322.361l-43.376-75.13H50.087C22.469,247.23,0,224.761,0,197.143V74.709
	c0-27.618,22.469-50.087,50.087-50.087h411.826c27.618,0,50.087,22.469,50.087,50.087v122.435c0,27.618-22.469,50.087-50.087,50.087
	H313.835l-43.376,75.13C264.035,333.486,247.954,333.466,241.542,322.361z"/>
<path style="fill:#FF835D;" d="M461.913,24.622H256v306.076c5.623,0.001,11.247-2.775,14.458-8.337l43.376-75.13h148.078
	c27.618,0,50.087-22.469,50.087-50.087V74.709C512,47.091,489.531,24.622,461.913,24.622z"/>
<g>
	<path style="fill:#FAE8AC;" d="M420.422,123.534H91.578c-9.22,0-16.696-7.475-16.696-16.696s7.475-16.696,16.696-16.696h328.843
		c9.22,0,16.696,7.475,16.696,16.696S429.643,123.534,420.422,123.534z"/>
	<path style="fill:#FAE8AC;" d="M420.422,181.708H91.578c-9.22,0-16.696-7.475-16.696-16.696c0-9.22,7.475-16.696,16.696-16.696
		h328.843c9.22,0,16.696,7.475,16.696,16.696C437.117,174.232,429.643,181.708,420.422,181.708z"/>
</g>
<g>
	<path style="fill:#F6D86E;" d="M420.422,90.143H256v33.391h164.422c9.22,0,16.696-7.475,16.696-16.696
		S429.643,90.143,420.422,90.143z"/>
	<path style="fill:#F6D86E;" d="M420.422,148.316H256v33.391h164.422c9.22,0,16.696-7.475,16.696-16.696
		C437.118,155.792,429.643,148.316,420.422,148.316z"/>
</g>
<g>
</g>
<g>
</g>
<g>
</g>
<g>
</g>
<g>
</g>
<g>
</g>
<g>
</g>
<g>
</g>
<g>
</g>
<g>
</g>
<g>
</g>
<g>
</g>
<g>
</g>
<g>
</g>
<g>
</g>
</svg>
